<svg width="20" height="20" viewBox="0 0 20 20" fill="none" xmlns="http://www.w3.org/2000/svg">
<path opacity="0.4" d="M13.5333 3.04297H6.46667C4.40834 3.04297 2.74167 4.71797 2.74167 6.76797V14.6096C2.74167 16.6596 4.41667 18.3346 6.46667 18.3346H13.525C15.5833 18.3346 17.25 16.6596 17.25 14.6096V6.76797C17.2583 4.70964 15.5833 3.04297 13.5333 3.04297Z" fill="white"/>
<path d="M11.9583 1.66797H8.04167C7.17501 1.66797 6.46667 2.36797 6.46667 3.23464V4.01797C6.46667 4.88464 7.16667 5.58464 8.03334 5.58464H11.9583C12.825 5.58464 13.525 4.88464 13.525 4.01797V3.23464C13.5333 2.36797 12.825 1.66797 11.9583 1.66797Z" fill="white"/>
<path d="M9.00832 14.1242C8.84999 14.1242 8.69166 14.0659 8.56666 13.9409L7.31666 12.6909C7.07499 12.4492 7.07499 12.0492 7.31666 11.8076C7.55832 11.5659 7.95832 11.5659 8.19999 11.8076L9.00832 12.6159L11.9 9.72422C12.1417 9.48255 12.5417 9.48255 12.7833 9.72422C13.025 9.96589 13.025 10.3659 12.7833 10.6076L9.44999 13.9409C9.33332 14.0659 9.16666 14.1242 9.00832 14.1242Z" fill="white"/>
</svg>
