<svg width="20" height="20" viewBox="0 0 20 20" fill="none" xmlns="http://www.w3.org/2000/svg">
<path d="M5 0V20" stroke="white"/>
<path opacity="0.4" d="M0 2.77778C0 1.24365 1.24365 0 2.77778 0H17.2222C18.7563 0 20 1.24365 20 2.77778V17.2222C20 18.7563 18.7563 20 17.2222 20H2.77778C1.24365 20 0 18.7563 0 17.2222V2.77778Z" fill="white"/>
<path d="M8.88867 5.00087C8.88867 5.30769 9.1374 5.55642 9.44423 5.55642H16.1109C16.4177 5.55642 16.6665 5.30769 16.6665 5.00087C16.6665 4.69404 16.4177 4.44531 16.1109 4.44531H9.44423C9.1374 4.44531 8.88867 4.69404 8.88867 5.00087Z" fill="white"/>
<path d="M8.88867 7.22309C8.88867 7.52992 9.1374 7.77865 9.44423 7.77865H16.1109C16.4177 7.77865 16.6665 7.52992 16.6665 7.22309C16.6665 6.91627 16.4177 6.66753 16.1109 6.66753H9.44423C9.1374 6.66753 8.88867 6.91627 8.88867 7.22309Z" fill="white"/>
<path d="M8.88867 9.44531C8.88867 9.75214 9.1374 10.0009 9.44423 10.0009H13.8887C14.1955 10.0009 14.4442 9.75214 14.4442 9.44531C14.4442 9.13849 14.1955 8.88976 13.8887 8.88976H9.44423C9.1374 8.88976 8.88867 9.13849 8.88867 9.44531Z" fill="white"/>
<path d="M8.88867 12.7786C8.88867 13.0855 9.1374 13.3342 9.44423 13.3342H16.1109C16.4177 13.3342 16.6665 13.0855 16.6665 12.7786C16.6665 12.4718 16.4177 12.2231 16.1109 12.2231H9.44423C9.1374 12.2231 8.88867 12.4718 8.88867 12.7786Z" fill="white"/>
<path d="M8.88867 15.0009C8.88867 15.3077 9.1374 15.5564 9.44423 15.5564H13.8887C14.1955 15.5564 14.4442 15.3077 14.4442 15.0009C14.4442 14.694 14.1955 14.4453 13.8887 14.4453H9.44423C9.1374 14.4453 8.88867 14.694 8.88867 15.0009Z" fill="white"/>
</svg>
