<svg width="20" height="20" viewBox="0 0 20 20" fill="none" xmlns="http://www.w3.org/2000/svg">
<path d="M17.9167 9.08268V3.41602C17.9167 2.16602 17.3833 1.66602 16.0583 1.66602H12.6917C11.3667 1.66602 10.8333 2.16602 10.8333 3.41602V9.08268C10.8333 10.3327 11.3667 10.8327 12.6917 10.8327H16.0583C17.3833 10.8327 17.9167 10.3327 17.9167 9.08268Z" fill="white"/>
<path d="M9.16668 10.916V16.5827C9.16668 17.8327 8.63334 18.3327 7.30834 18.3327H3.94168C2.61668 18.3327 2.08334 17.8327 2.08334 16.5827V10.916C2.08334 9.66602 2.61668 9.16602 3.94168 9.16602H7.30834C8.63334 9.16602 9.16668 9.66602 9.16668 10.916Z" fill="white"/>
<path opacity="0.4" d="M17.9167 16.5833V14.25C17.9167 13 17.3833 12.5 16.0583 12.5H12.6917C11.3667 12.5 10.8333 13 10.8333 14.25V16.5833C10.8333 17.8333 11.3667 18.3333 12.6917 18.3333H16.0583C17.3833 18.3333 17.9167 17.8333 17.9167 16.5833Z" fill="white"/>
<path opacity="0.4" d="M9.16668 5.74935V3.41602C9.16668 2.16602 8.63334 1.66602 7.30834 1.66602H3.94168C2.61668 1.66602 2.08334 2.16602 2.08334 3.41602V5.74935C2.08334 6.99935 2.61668 7.49935 3.94168 7.49935H7.30834C8.63334 7.49935 9.16668 6.99935 9.16668 5.74935Z" fill="white"/>
</svg>
