<svg width="20" height="20" viewBox="0 0 20 20" fill="none" xmlns="http://www.w3.org/2000/svg">
<path opacity="0.4" d="M18.05 8.69944L17.2333 12.1828C16.5333 15.1911 15.15 16.4078 12.55 16.1578C12.1333 16.1244 11.6833 16.0494 11.2 15.9328L9.79999 15.5994C6.32499 14.7744 5.24999 13.0578 6.06665 9.57444L6.88332 6.08277C7.04999 5.37444 7.24999 4.75777 7.49999 4.24944C8.47499 2.23277 10.1333 1.6911 12.9167 2.34944L14.3083 2.67444C17.8 3.4911 18.8667 5.2161 18.05 8.69944Z" fill="white"/>
<path d="M12.55 16.1583C12.0333 16.5083 11.3833 16.8 10.5917 17.0583L9.27501 17.4917C5.96668 18.5583 4.22501 17.6667 3.15001 14.3583L2.08334 11.0667C1.01668 7.75833 1.90001 6.00833 5.20834 4.94167L6.52501 4.50833C6.86668 4.4 7.19168 4.30833 7.50001 4.25C7.25001 4.75833 7.05001 5.375 6.88334 6.08333L6.06668 9.575C5.25001 13.0583 6.32501 14.775 9.80001 15.6L11.2 15.9333C11.6833 16.05 12.1333 16.125 12.55 16.1583Z" fill="white"/>
<path d="M14.575 8.75912C14.525 8.75912 14.475 8.75079 14.4167 8.74246L10.375 7.71746C10.0417 7.63412 9.84165 7.29246 9.92499 6.95912C10.0083 6.62579 10.35 6.42579 10.6833 6.50912L14.725 7.53412C15.0583 7.61746 15.2583 7.95912 15.175 8.29246C15.1083 8.56746 14.85 8.75912 14.575 8.75912Z" fill="white"/>
<path d="M12.1333 11.5754C12.0833 11.5754 12.0333 11.5671 11.975 11.5587L9.55001 10.9421C9.21667 10.8587 9.01667 10.5171 9.10001 10.1837C9.18334 9.8504 9.52501 9.6504 9.85834 9.73373L12.2833 10.3504C12.6167 10.4337 12.8167 10.7754 12.7333 11.1087C12.6667 11.3921 12.4167 11.5754 12.1333 11.5754Z" fill="white"/>
</svg>
