<svg width="20" height="20" viewBox="0 0 20 20" fill="none" xmlns="http://www.w3.org/2000/svg">
<path opacity="0.4" d="M18.3248 5.01745C18.3415 5.21745 18.3248 5.42577 18.2748 5.6341L15.4665 16.9091C15.2665 17.7507 14.5165 18.3341 13.6498 18.3341H2.69979C1.44146 18.3341 0.549806 17.1008 0.916473 15.8924L4.4248 4.61741C4.66647 3.83408 5.39148 3.30078 6.20814 3.30078H16.4581C17.2581 3.30078 17.9081 3.77578 18.1831 4.44244C18.2665 4.61744 18.3081 4.81745 18.3248 5.01745Z" fill="white"/>
<path d="M19.1582 16.35C19.2416 17.425 18.3916 18.3333 17.3166 18.3333H13.6499C14.5166 18.3333 15.2666 17.75 15.4666 16.9083L18.2749 5.63334C18.3249 5.42501 18.3416 5.21668 18.3249 5.01668L18.3332 5L19.1582 16.35Z" fill="white"/>
<path d="M8.06679 5.94084C8.01679 5.94084 7.96679 5.93249 7.91679 5.92416C7.58346 5.84082 7.37514 5.50751 7.45847 5.16585L8.32512 1.56584C8.40845 1.23251 8.74179 1.03252 9.08345 1.10752C9.41679 1.19085 9.62514 1.52416 9.5418 1.86583L8.67513 5.46583C8.60846 5.74917 8.35012 5.94084 8.06679 5.94084Z" fill="white"/>
<path d="M13.6503 5.94886C13.6087 5.94886 13.5587 5.94884 13.517 5.93218C13.1837 5.85718 12.967 5.52383 13.0337 5.1905L13.817 1.57386C13.892 1.23219 14.2253 1.02384 14.5587 1.09051C14.892 1.16551 15.1087 1.49886 15.042 1.83219L14.2587 5.44883C14.2003 5.74883 13.942 5.94886 13.6503 5.94886Z" fill="white"/>
<path d="M13.0835 10.625H6.41684C6.07517 10.625 5.79184 10.3417 5.79184 10C5.79184 9.65833 6.07517 9.375 6.41684 9.375H13.0835C13.4252 9.375 13.7085 9.65833 13.7085 10C13.7085 10.3417 13.4252 10.625 13.0835 10.625Z" fill="white"/>
<path d="M12.2497 13.959H5.58301C5.24134 13.959 4.95801 13.6757 4.95801 13.334C4.95801 12.9923 5.24134 12.709 5.58301 12.709H12.2497C12.5913 12.709 12.8747 12.9923 12.8747 13.334C12.8747 13.6757 12.5913 13.959 12.2497 13.959Z" fill="white"/>
</svg>
