<svg width="20" height="20" viewBox="0 0 20 20" fill="none" xmlns="http://www.w3.org/2000/svg">
<path opacity="0.4" d="M18.05 8.69944L17.2333 12.1828C16.5333 15.1911 15.15 16.4078 12.55 16.1578C12.1333 16.1244 11.6833 16.0494 11.2 15.9328L9.79999 15.5994C6.32499 14.7744 5.24999 13.0578 6.06665 9.57444L6.88332 6.08277C7.04999 5.37444 7.24999 4.75777 7.49999 4.24944C8.47499 2.23277 10.1333 1.6911 12.9167 2.34944L14.3083 2.67444C17.8 3.4911 18.8667 5.2161 18.05 8.69944Z" fill="#283D56"/>
<path d="M12.55 16.1583C12.0334 16.5083 11.3834 16.8 10.5917 17.0583L9.27504 17.4917C5.96671 18.5583 4.22504 17.6667 3.15004 14.3583L2.08337 11.0667C1.01671 7.75833 1.90004 6.00833 5.20837 4.94167L6.52504 4.50833C6.86671 4.4 7.19171 4.30833 7.50004 4.25C7.25004 4.75833 7.05004 5.375 6.88337 6.08333L6.06671 9.575C5.25004 13.0583 6.32504 14.775 9.80004 15.6L11.2 15.9333C11.6834 16.05 12.1334 16.125 12.55 16.1583Z" fill="#283D56"/>
<path d="M14.5749 8.75912C14.5249 8.75912 14.4749 8.75079 14.4166 8.74246L10.3749 7.71746C10.0416 7.63412 9.84156 7.29246 9.9249 6.95912C10.0082 6.62579 10.3499 6.42579 10.6832 6.50912L14.7249 7.53412C15.0582 7.61746 15.2582 7.95912 15.1749 8.29246C15.1082 8.56746 14.8499 8.75912 14.5749 8.75912Z" fill="#283D56"/>
<path d="M12.1333 11.5754C12.0833 11.5754 12.0333 11.5671 11.9749 11.5587L9.54994 10.9421C9.21661 10.8587 9.01661 10.5171 9.09994 10.1837C9.18328 9.8504 9.52494 9.6504 9.85828 9.73373L12.2833 10.3504C12.6166 10.4337 12.8166 10.7754 12.7333 11.1087C12.6666 11.3921 12.4166 11.5754 12.1333 11.5754Z" fill="#283D56"/>
</svg>
