<svg width="28" height="25" viewBox="0 0 28 25" fill="none" xmlns="http://www.w3.org/2000/svg">
<path d="M12.75 22.75C19.3774 22.75 24.75 17.8251 24.75 11.75C24.75 5.67487 19.3774 0.75 12.75 0.75C6.12258 0.75 0.75 5.67487 0.75 11.75C0.75 14.6681 1.9896 17.3209 4.01245 19.2899C4.45761 19.7232 4.75605 20.315 4.63518 20.9244C4.43369 21.9402 3.97576 22.8637 3.33105 23.6246C3.53906 23.6619 3.75 23.691 3.96289 23.7118C4.22168 23.7371 4.48438 23.75 4.75 23.75C6.45934 23.75 8.04355 23.2138 9.34356 22.3005C10.4234 22.593 11.5667 22.75 12.75 22.75Z" stroke="#0F172A" stroke-width="1.5" stroke-linecap="round" stroke-linejoin="round"/>
<circle cx="23.75" cy="5.75" r="4" fill="#FE5E37"/>
</svg>
