<svg width="20" height="20" viewBox="0 0 20 20" fill="none" xmlns="http://www.w3.org/2000/svg">
<path d="M17.9166 9.08268V3.41602C17.9166 2.16602 17.3833 1.66602 16.0583 1.66602H12.6916C11.3666 1.66602 10.8333 2.16602 10.8333 3.41602V9.08268C10.8333 10.3327 11.3666 10.8327 12.6916 10.8327H16.0583C17.3833 10.8327 17.9166 10.3327 17.9166 9.08268Z" fill="#283D56"/>
<path d="M9.16659 10.916V16.5827C9.16659 17.8327 8.63325 18.3327 7.30825 18.3327H3.94159C2.61659 18.3327 2.08325 17.8327 2.08325 16.5827V10.916C2.08325 9.66602 2.61659 9.16602 3.94159 9.16602H7.30825C8.63325 9.16602 9.16659 9.66602 9.16659 10.916Z" fill="#283D56"/>
<path opacity="0.4" d="M17.9166 16.5833V14.25C17.9166 13 17.3833 12.5 16.0583 12.5H12.6916C11.3666 12.5 10.8333 13 10.8333 14.25V16.5833C10.8333 17.8333 11.3666 18.3333 12.6916 18.3333H16.0583C17.3833 18.3333 17.9166 17.8333 17.9166 16.5833Z" fill="#283D56"/>
<path opacity="0.4" d="M9.16659 5.74935V3.41602C9.16659 2.16602 8.63325 1.66602 7.30825 1.66602H3.94159C2.61659 1.66602 2.08325 2.16602 2.08325 3.41602V5.74935C2.08325 6.99935 2.61659 7.49935 3.94159 7.49935H7.30825C8.63325 7.49935 9.16659 6.99935 9.16659 5.74935Z" fill="#283D56"/>
</svg>
