<svg width="16" height="18" viewBox="0 0 16 18" fill="none" xmlns="http://www.w3.org/2000/svg">
<path d="M9.9089 6.375L9.62044 13.875M5.63005 13.875L5.34159 6.375M13.6483 3.70047C13.9333 3.74351 14.2173 3.78956 14.5002 3.83858M13.6483 3.70047L12.7584 15.2688C12.6833 16.2457 11.8687 17 10.8889 17H4.36155C3.3818 17 2.56722 16.2457 2.49208 15.2688L1.6022 3.70047M13.6483 3.70047C12.6929 3.5562 11.7265 3.44571 10.7502 3.37027M0.750244 3.83858C1.03322 3.78956 1.31722 3.74351 1.6022 3.70047M1.6022 3.70047C2.55756 3.5562 3.52399 3.44571 4.50024 3.37027M10.7502 3.37027V2.60682C10.7502 1.62402 9.99136 0.803526 9.00906 0.772103C8.5496 0.757405 8.08828 0.75 7.62524 0.75C7.1622 0.75 6.70089 0.757405 6.24142 0.772103C5.25912 0.803526 4.50024 1.62402 4.50024 2.60682V3.37027M10.7502 3.37027C9.71904 3.29058 8.67688 3.25 7.62524 3.25C6.5736 3.25 5.53144 3.29058 4.50024 3.37027" stroke="#6B7283" stroke-width="1.5" stroke-linecap="round" stroke-linejoin="round"/>
</svg>
