<svg width="18" height="18" viewBox="0 0 18 18" fill="none" xmlns="http://www.w3.org/2000/svg">
<path d="M12.3014 2.61389L13.7076 1.20765C14.3178 0.597451 15.3072 0.597451 15.9174 1.20765C16.5275 1.81784 16.5275 2.80716 15.9174 3.41735L7.06849 12.2662C6.62792 12.7068 6.08453 13.0306 5.48741 13.2085L3.25 13.875L3.91648 11.6376C4.09435 11.0405 4.4182 10.4971 4.85877 10.0565L12.3014 2.61389ZM12.3014 2.61389L14.5 4.81249M13.25 10.5417V14.5C13.25 15.5355 12.4105 16.375 11.375 16.375H2.625C1.58947 16.375 0.75 15.5355 0.75 14.5V5.74999C0.75 4.71446 1.58947 3.87499 2.625 3.87499H6.58333" stroke="#6B7283" stroke-width="1.5" stroke-linecap="round" stroke-linejoin="round"/>
</svg>
