<svg width="20" height="20" viewBox="0 0 20 20" fill="none" xmlns="http://www.w3.org/2000/svg">
<path opacity="0.4" d="M10.0001 18.3327C14.6025 18.3327 18.3334 14.6017 18.3334 9.99935C18.3334 5.39698 14.6025 1.66602 10.0001 1.66602C5.39771 1.66602 1.66675 5.39698 1.66675 9.99935C1.66675 14.6017 5.39771 18.3327 10.0001 18.3327Z" fill="#283D56"/>
<path d="M13.0916 13.2745C12.9833 13.2745 12.875 13.2495 12.775 13.1828L10.1916 11.6411C9.54995 11.2578 9.07495 10.4161 9.07495 9.67448V6.25781C9.07495 5.91615 9.35828 5.63281 9.69995 5.63281C10.0416 5.63281 10.325 5.91615 10.325 6.25781V9.67448C10.325 9.97448 10.575 10.4161 10.8333 10.5661L13.4166 12.1078C13.7166 12.2828 13.8083 12.6661 13.6333 12.9661C13.5083 13.1661 13.3 13.2745 13.0916 13.2745Z" fill="#283D56"/>
</svg>
