<svg width="80" height="80" viewBox="0 0 80 80" fill="none" xmlns="http://www.w3.org/2000/svg">
<g clip-path="url(#clip0_7010_549)">
<path d="M39.9969 0C39.2944 0 38.598 0.0186509 37.9017 0.0559528V24.9425C37.9017 25.3466 37.74 25.7134 37.4726 25.9807C37.2053 26.2418 36.8385 26.4097 36.4343 26.4097C35.6323 26.4097 34.9795 25.7694 34.967 24.9674L34.5691 0.366801C33.1764 0.553311 31.8085 0.814423 30.4656 1.14392L31.0811 27.106C31.1371 29.3876 32.3246 31.4952 34.252 32.7199L34.6313 32.9624C35.9121 33.7768 36.6582 35.2254 36.5711 36.7423L35.1287 62.636C34.9857 65.2471 34.5753 67.8396 33.91 70.3699L31.6096 79.1172C34.3142 79.6954 37.1183 80 39.9969 80C42.8694 80 45.6797 79.6954 48.3843 79.1172L46.0838 70.3699C45.4186 67.8396 45.0082 65.2471 44.8652 62.636L43.4228 36.7423C43.3357 35.2254 44.0818 33.7768 45.3626 32.9624L45.7419 32.7199C47.6693 31.4952 48.8568 29.3876 48.9128 27.106L49.5283 1.14392C48.1853 0.814423 46.8175 0.553311 45.4248 0.366801L45.0269 24.9674C45.0144 25.7694 44.3616 26.4097 43.5595 26.4097C43.1554 26.4097 42.7886 26.2481 42.5212 25.9807C42.2601 25.7134 42.0922 25.3466 42.0922 24.9425V0.0559528C41.3959 0.0186509 40.6995 0 39.9969 0Z" fill="#B0FFC9"/>
<path d="M27.6303 29.7047C27.4127 28.8965 27.2884 28.051 27.2697 27.193L26.6791 2.27539C23.4895 3.40066 20.4865 4.9176 17.7259 6.77648C16.5695 13.6151 19.4855 19.9627 19.4855 19.9627C15.8669 18.0976 14.7726 12.981 14.4742 9.20732C13.2431 10.2269 12.0805 11.3211 10.98 12.4774C11.7385 17.2396 14.8659 26.6708 27.6365 29.7047H27.6303Z" fill="#00D34A"/>
<path d="M52.3697 29.7047C52.5874 28.8965 52.7117 28.051 52.7304 27.193L53.321 2.27539C56.5106 3.40066 59.5136 4.9176 62.2742 6.77648C63.4306 13.6151 60.5146 19.9627 60.5146 19.9627C64.1332 18.0976 65.2274 12.981 65.5259 9.20732C66.7569 10.2269 67.9196 11.3211 69.0201 12.4774C68.2616 17.2396 65.1342 26.6708 52.3635 29.7047H52.3697Z" fill="#00D34A"/>
<path d="M7.61638 42.7668C18.2669 41.5669 27.5371 49.593 31.7898 54.0506L32.5359 40.6344C29.2345 37.041 16.5882 25.3282 0.223828 35.7292C0.0746095 37.128 0 38.5517 0 39.994C0 57.874 11.7323 73.0186 27.9226 78.1352L30.2231 69.3941C30.7888 67.2492 31.1495 65.0546 31.2925 62.8476C25.1123 50.3018 7.61638 42.7606 7.61638 42.7606V42.7668Z" fill="#00D34A"/>
<path d="M72.3898 42.7668C61.7393 41.5669 52.4691 49.593 48.2163 54.0506L47.4702 40.6344C50.7717 37.041 63.418 25.3282 79.7823 35.7292C79.9316 37.128 80.0062 38.5517 80.0062 39.994C80.0062 57.874 68.2738 73.0186 52.0836 78.1352L49.7831 69.3941C49.2173 67.2492 48.8567 65.0546 48.7137 62.8476C54.8939 50.3018 72.3898 42.7606 72.3898 42.7606V42.7668Z" fill="#00D34A"/>
<path d="M15.214 27.7653C12.298 25.2536 10.4577 22.4063 9.29501 19.9257C8.67949 18.6139 8.22561 17.3394 7.88365 16.1582C7.28056 16.9664 6.70855 17.7995 6.16763 18.6574C5.98733 18.9372 5.80702 19.2294 5.63915 19.5216C5.21636 20.2179 4.82466 20.9328 4.45162 21.6602C5.33449 22.5057 7.05051 23.9232 9.37584 24.9117C9.17066 24.8371 6.1925 23.7864 3.4133 23.8299C3.32004 24.0413 3.22678 24.2465 3.13973 24.4579C2.66099 25.5334 2.26307 26.64 1.90868 27.7591C1.75946 28.2316 1.61646 28.7103 1.48589 29.189C1.4175 29.4314 1.23719 30.7805 1.05688 30.8738C5.16041 28.7724 9.35097 27.7093 13.5726 27.7093C14.1322 27.7093 14.6793 27.728 15.2202 27.7653H15.214Z" fill="#00D34A"/>
<path d="M64.786 27.7653C67.702 25.2536 69.5424 22.4063 70.705 19.9257C71.3205 18.6139 71.7744 17.3394 72.1164 16.1582C72.7195 16.9664 73.2915 17.7995 73.8324 18.6574C74.0127 18.9372 74.193 19.2294 74.3609 19.5216C74.7837 20.2179 75.1754 20.9328 75.5484 21.6602C74.6655 22.5057 72.9495 23.9232 70.6242 24.9117C70.8294 24.8371 73.8075 23.7864 76.5867 23.8299C76.68 24.0413 76.7733 24.2465 76.8603 24.4579C77.339 25.5334 77.737 26.64 78.0914 27.7591C78.2406 28.2316 78.3836 28.7103 78.5141 29.189C78.5825 29.4314 78.7628 30.7805 78.9431 30.8738C74.8396 28.7724 70.6491 27.7093 66.4274 27.7093C65.8678 27.7093 65.3207 27.728 64.7798 27.7653H64.786Z" fill="#00D34A"/>
</g>
<defs>
<clipPath id="clip0_7010_549">
<rect width="80" height="80" fill="white"/>
</clipPath>
</defs>
</svg>
