<svg width="20" height="20" viewBox="0 0 20 20" fill="none" xmlns="http://www.w3.org/2000/svg">
<path opacity="0.4" d="M18.3247 5.01745C18.3414 5.21745 18.3247 5.42577 18.2747 5.6341L15.4664 16.9091C15.2664 17.7507 14.5164 18.3341 13.6497 18.3341H2.6997C1.44137 18.3341 0.549715 17.1008 0.916382 15.8924L4.42471 4.61741C4.66637 3.83408 5.39139 3.30078 6.20805 3.30078H16.458C17.258 3.30078 17.908 3.77578 18.1831 4.44244C18.2664 4.61744 18.308 4.81745 18.3247 5.01745Z" fill="#283D56"/>
<path d="M19.1582 16.35C19.2416 17.425 18.3916 18.3333 17.3166 18.3333H13.6499C14.5166 18.3333 15.2666 17.75 15.4666 16.9083L18.2749 5.63334C18.3249 5.42501 18.3416 5.21668 18.3249 5.01668L18.3332 5L19.1582 16.35Z" fill="#283D56"/>
<path d="M8.06688 5.94084C8.01688 5.94084 7.96688 5.93249 7.91688 5.92416C7.58355 5.84082 7.37523 5.50751 7.45856 5.16585L8.32521 1.56584C8.40854 1.23251 8.74188 1.03252 9.08355 1.10752C9.41688 1.19085 9.62523 1.52416 9.5419 1.86583L8.67522 5.46583C8.60855 5.74917 8.35021 5.94084 8.06688 5.94084Z" fill="#283D56"/>
<path d="M13.6504 5.94886C13.6088 5.94886 13.5588 5.94884 13.5171 5.93218C13.1838 5.85718 12.9671 5.52383 13.0338 5.1905L13.8171 1.57386C13.8921 1.23219 14.2254 1.02384 14.5588 1.09051C14.8921 1.16551 15.1088 1.49886 15.0421 1.83219L14.2588 5.44883C14.2004 5.74883 13.9421 5.94886 13.6504 5.94886Z" fill="#283D56"/>
<path d="M13.0834 10.625H6.41675C6.07508 10.625 5.79175 10.3417 5.79175 10C5.79175 9.65833 6.07508 9.375 6.41675 9.375H13.0834C13.4251 9.375 13.7084 9.65833 13.7084 10C13.7084 10.3417 13.4251 10.625 13.0834 10.625Z" fill="#283D56"/>
<path d="M12.2497 13.959H5.58301C5.24134 13.959 4.95801 13.6757 4.95801 13.334C4.95801 12.9923 5.24134 12.709 5.58301 12.709H12.2497C12.5913 12.709 12.8747 12.9923 12.8747 13.334C12.8747 13.6757 12.5913 13.959 12.2497 13.959Z" fill="#283D56"/>
</svg>
