<svg width="17" height="18" viewBox="0 0 17 18" fill="none" xmlns="http://www.w3.org/2000/svg">
<path d="M3.8501 10.3989C3.64953 10.4241 3.4495 10.4509 3.25 10.4794M3.8501 10.3989C5.29131 10.2181 6.75978 10.125 8.25 10.125C9.74022 10.125 11.2087 10.2181 12.6499 10.3989M3.8501 10.3989L3.53409 13.875M12.6499 10.3989C12.8505 10.4241 13.0505 10.4509 13.25 10.4794M12.6499 10.3989L12.9659 13.875M12.9659 13.875L13.1571 15.9776C13.207 16.5266 12.7747 17 12.2234 17H4.27659C3.72531 17 3.29303 16.5266 3.34294 15.9776L3.53409 13.875M12.9659 13.875H13.875C14.9105 13.875 15.75 13.0355 15.75 12V6.75474C15.75 5.85396 15.1101 5.07568 14.2192 4.94238C13.6911 4.86337 13.1596 4.79467 12.625 4.73651M3.53409 13.875H2.625C1.58947 13.875 0.75 13.0355 0.75 12V6.75474C0.75 5.85396 1.38992 5.07568 2.28078 4.94238C2.80889 4.86337 3.34036 4.79467 3.875 4.73651M12.625 4.73651C11.1881 4.58021 9.72844 4.5 8.25 4.5C6.77156 4.5 5.31186 4.58021 3.875 4.73651M12.625 4.73651V1.6875C12.625 1.16973 12.2053 0.75 11.6875 0.75H4.8125C4.29473 0.75 3.875 1.16973 3.875 1.6875V4.73651M13.25 7.625H13.2563V7.63125H13.25V7.625ZM10.75 7.625H10.7563V7.63125H10.75V7.625Z" stroke="#6B7283" stroke-width="1.5" stroke-linecap="round" stroke-linejoin="round"/>
</svg>
