<svg width="20" height="20" viewBox="0 0 20 20" fill="none" xmlns="http://www.w3.org/2000/svg">
<path opacity="0.4" d="M13.5334 3.04102H6.4667C4.40837 3.04102 2.7417 4.71602 2.7417 6.76602V14.6077C2.7417 16.6577 4.4167 18.3327 6.4667 18.3327H13.525C15.5834 18.3327 17.25 16.6577 17.25 14.6077V6.76602C17.2584 4.70768 15.5834 3.04102 13.5334 3.04102Z" fill="#283D56"/>
<path d="M11.9582 1.66602H8.04155C7.17489 1.66602 6.46655 2.36602 6.46655 3.23268V4.01602C6.46655 4.88268 7.16655 5.58268 8.03322 5.58268H11.9582C12.8249 5.58268 13.5249 4.88268 13.5249 4.01602V3.23268C13.5332 2.36602 12.8249 1.66602 11.9582 1.66602Z" fill="#283D56"/>
<path d="M9.00842 14.1242C8.85008 14.1242 8.69175 14.0659 8.56675 13.9409L7.31675 12.6909C7.07508 12.4492 7.07508 12.0492 7.31675 11.8076C7.55841 11.5659 7.95842 11.5659 8.20008 11.8076L9.00842 12.6159L11.9001 9.72422C12.1417 9.48255 12.5417 9.48255 12.7834 9.72422C13.0251 9.96589 13.0251 10.3659 12.7834 10.6076L9.45008 13.9409C9.33341 14.0659 9.16675 14.1242 9.00842 14.1242Z" fill="#283D56"/>
</svg>
