<svg width="25" height="26" viewBox="0 0 25 26" fill="none" xmlns="http://www.w3.org/2000/svg">
<path d="M8.99938 2.0034C9.11992 1.28012 9.74571 0.75 10.479 0.75H13.9376C14.6708 0.75 15.2966 1.28012 15.4172 2.0034L15.7019 3.71147C15.785 4.21019 16.1183 4.62562 16.5606 4.87048C16.6595 4.92522 16.7573 4.98178 16.8539 5.0401C17.2872 5.30179 17.8144 5.38315 18.2884 5.20554L19.9109 4.5977C20.5976 4.34046 21.3696 4.61734 21.7362 5.25236L23.4655 8.24762C23.8321 8.88264 23.6859 9.68964 23.1198 10.1557L21.7807 11.2581C21.3907 11.5792 21.1974 12.075 21.2067 12.58C21.2078 12.6366 21.2083 12.6932 21.2083 12.75C21.2083 12.8068 21.2078 12.8634 21.2067 12.9199C21.1974 13.425 21.3907 13.9208 21.7807 14.2419L23.1198 15.3443C23.6859 15.8103 23.8321 16.6173 23.4655 17.2524L21.7362 20.2476C21.3696 20.8826 20.5976 21.1595 19.9109 20.9023L18.2885 20.2944C17.8144 20.1168 17.2873 20.1982 16.8539 20.4599C16.7573 20.5182 16.6595 20.5748 16.5606 20.6295C16.1183 20.8744 15.785 21.2898 15.7019 21.7885L15.4172 23.4966C15.2966 24.2199 14.6708 24.75 13.9376 24.75H10.479C9.74571 24.75 9.11992 24.2199 8.99938 23.4966L8.7147 21.7885C8.63158 21.2898 8.29828 20.8744 7.85593 20.6295C7.75703 20.5748 7.65927 20.5182 7.56269 20.4599C7.12931 20.1982 6.6022 20.1168 6.12812 20.2945L4.50563 20.9023C3.81897 21.1595 3.04698 20.8827 2.68035 20.2476L0.951045 17.2524C0.584416 16.6174 0.730621 15.8104 1.29673 15.3443L2.63586 14.2419C3.02587 13.9208 3.2192 13.425 3.20985 12.92C3.2088 12.8634 3.20828 12.8068 3.20828 12.75C3.20828 12.6932 3.2088 12.6366 3.20985 12.5801C3.2192 12.075 3.02587 11.5792 2.63586 11.2581L1.29673 10.1557C0.73062 9.68966 0.584416 8.88266 0.951045 8.24764L2.68035 5.25238C3.04698 4.61736 3.81897 4.34048 4.50563 4.59772L6.1281 5.20556C6.60218 5.38316 7.12929 5.3018 7.56267 5.04011C7.65925 4.98178 7.75702 4.92523 7.85593 4.87048C8.29828 4.62562 8.63158 4.21019 8.7147 3.71147L8.99938 2.0034Z" stroke="#0F172A" stroke-width="1.5" stroke-linecap="round" stroke-linejoin="round"/>
<path d="M16.208 12.7499C16.208 14.959 14.4171 16.7499 12.208 16.7499C9.99883 16.7499 8.20797 14.959 8.20797 12.7499C8.20797 10.5408 9.99883 8.74989 12.208 8.74989C14.4171 8.74989 16.208 10.5408 16.208 12.7499Z" stroke="#0F172A" stroke-width="1.5" stroke-linecap="round" stroke-linejoin="round"/>
</svg>
