<svg width="40" height="40" viewBox="0 0 40 40" fill="none" xmlns="http://www.w3.org/2000/svg">
<g clip-path="url(#clip0_7824_2912)">
<path d="M19.9985 0C19.6472 0 19.299 0.00932546 18.9509 0.0279764V12.4712C18.9509 12.6733 18.87 12.8567 18.7364 12.9904C18.6027 13.1209 18.4193 13.2048 18.2172 13.2048C17.8162 13.2048 17.4898 12.8847 17.4835 12.4837L17.2846 0.183401C16.5882 0.276655 15.9043 0.407212 15.2328 0.571961L15.5406 13.553C15.5686 14.6938 16.1623 15.7476 17.126 16.36L17.3157 16.4812C17.9561 16.8884 18.3291 17.6127 18.2856 18.3712L17.5644 31.318C17.4929 32.6236 17.2877 33.9198 16.9551 35.185L15.8048 39.5586C17.1571 39.8477 18.5592 40 19.9985 40C21.4347 40 22.8399 39.8477 24.1922 39.5586L23.0419 35.185C22.7093 33.9198 22.5041 32.6236 22.4326 31.318L21.7114 18.3712C21.6679 17.6127 22.0409 16.8884 22.6813 16.4812L22.871 16.36C23.8347 15.7476 24.4284 14.6938 24.4564 13.553L24.7642 0.571961C24.0927 0.407212 23.4088 0.276655 22.7124 0.183401L22.5135 12.4837C22.5072 12.8847 22.1808 13.2048 21.7798 13.2048C21.5777 13.2048 21.3943 13.124 21.2606 12.9904C21.1301 12.8567 21.0461 12.6733 21.0461 12.4712V0.0279764C20.698 0.00932546 20.3498 0 19.9985 0Z" fill="#004F19"/>
<path d="M13.815 14.8523C13.7062 14.4482 13.644 14.0255 13.6347 13.5965L13.3394 1.1377C11.7446 1.70033 10.2431 2.4588 8.86281 3.38824C8.28458 6.80757 9.74258 9.98134 9.74258 9.98134C7.9333 9.04879 7.38616 6.49051 7.23694 4.60366C6.62141 5.11345 6.04008 5.66054 5.48984 6.23872C5.8691 8.61982 7.43279 13.3354 13.8181 14.8523H13.815Z" fill="#00B940"/>
<path d="M26.1848 14.8523C26.2936 14.4482 26.3557 14.0255 26.3651 13.5965L26.6604 1.1377C28.2552 1.70033 29.7567 2.4588 31.137 3.38824C31.7152 6.80757 30.2572 9.98134 30.2572 9.98134C32.0665 9.04879 32.6136 6.49051 32.7628 4.60366C33.3783 5.11345 33.9597 5.66054 34.5099 6.23872C34.1307 8.61982 32.567 13.3354 26.1816 14.8523H26.1848Z" fill="#00B940"/>
<path d="M3.80819 21.3834C9.13344 20.7835 13.7686 24.7965 15.8949 27.0253L16.268 20.3172C14.6172 18.5205 8.29409 12.6641 0.111914 17.8646C0.0373047 18.564 0 19.2758 0 19.997C0 28.937 5.86617 36.5093 13.9613 39.0676L15.1115 34.697C15.3944 33.6246 15.5747 32.5273 15.6462 31.4238C12.5562 25.1509 3.80819 21.3803 3.80819 21.3803V21.3834Z" fill="#00B940"/>
<path d="M36.195 21.3834C30.8697 20.7835 26.2346 24.7965 24.1082 27.0253L23.7352 20.3172C25.3859 18.5205 31.7091 12.6641 39.8912 17.8646C39.9658 18.564 40.0031 19.2758 40.0031 19.997C40.0031 28.937 34.137 36.5093 26.0418 39.0676L24.8916 34.697C24.6087 33.6246 24.4284 32.5273 24.3569 31.4238C27.447 25.1509 36.195 21.3803 36.195 21.3803V21.3834Z" fill="#00B940"/>
<path d="M7.60708 13.8826C6.14908 12.6268 5.2289 11.2031 4.64757 9.96284C4.3398 9.30695 4.11287 8.66971 3.94189 8.0791C3.64034 8.4832 3.35434 8.89974 3.08388 9.32871C2.99372 9.4686 2.90357 9.61469 2.81964 9.76079C2.60824 10.1089 2.41239 10.4664 2.22587 10.8301C2.66731 11.2529 3.52532 11.9616 4.68798 12.4559C4.58539 12.4185 3.09631 11.8932 1.70671 11.915C1.66008 12.0207 1.61345 12.1232 1.56993 12.2289C1.33056 12.7667 1.1316 13.32 0.954399 13.8795C0.87979 14.1158 0.808289 14.3551 0.743006 14.5945C0.70881 14.7157 0.618657 15.3903 0.528503 15.4369C2.58026 14.3862 4.67555 13.8547 6.78637 13.8547C7.06616 13.8547 7.33973 13.864 7.61019 13.8826H7.60708Z" fill="#00B940"/>
<path d="M32.3929 13.8826C33.8509 12.6268 34.7711 11.2031 35.3524 9.96284C35.6602 9.30695 35.8871 8.66971 36.0581 8.0791C36.3597 8.4832 36.6457 8.89974 36.9161 9.32871C37.0063 9.4686 37.0964 9.61469 37.1804 9.76079C37.3918 10.1089 37.5876 10.4664 37.7741 10.8301C37.3327 11.2529 36.4747 11.9616 35.312 12.4559C35.4146 12.4185 36.9037 11.8932 38.2933 11.915C38.3399 12.0207 38.3866 12.1232 38.4301 12.2289C38.6695 12.7667 38.8684 13.32 39.0456 13.8795C39.1202 14.1158 39.1917 14.3551 39.257 14.5945C39.2912 14.7157 39.3814 15.3903 39.4715 15.4369C37.4198 14.3862 35.3245 13.8547 33.2136 13.8547C32.9339 13.8547 32.6603 13.864 32.3898 13.8826H32.3929Z" fill="#00B940"/>
</g>
<defs>
<clipPath id="clip0_7824_2912">
<rect width="40" height="40" fill="white"/>
</clipPath>
</defs>
</svg>
